<svg xmlns="http://www.w3.org/2000/svg" xmlns:xlink="http://www.w3.org/1999/xlink" width="1080" zoomAndPan="magnify" viewBox="0 0 810 809.999993" height="1080" preserveAspectRatio="xMidYMid meet" version="1.0"><defs><g/><clipPath id="8c53ec6f56"><path d="M 188.53125 92.167969 L 621.46875 92.167969 L 621.46875 564 L 188.53125 564 Z M 188.53125 92.167969 " clip-rule="nonzero"/></clipPath><clipPath id="c883cf5488"><path d="M 405 92.167969 C 285.449219 92.167969 188.53125 197.609375 188.53125 327.679688 C 188.53125 457.75 285.449219 563.191406 405 563.191406 C 524.550781 563.191406 621.46875 457.75 621.46875 327.679688 C 621.46875 197.609375 524.550781 92.167969 405 92.167969 Z M 405 92.167969 " clip-rule="nonzero"/></clipPath><clipPath id="e4483899e7"><path d="M 313.367188 394.976562 L 490.777344 394.976562 L 490.777344 454.039062 L 313.367188 454.039062 Z M 313.367188 394.976562 " clip-rule="nonzero"/></clipPath><clipPath id="0c773760df"><path d="M 402.058594 394.976562 C 353.074219 394.976562 313.367188 408.199219 313.367188 424.507812 C 313.367188 440.816406 353.074219 454.039062 402.058594 454.039062 C 451.039062 454.039062 490.746094 440.816406 490.746094 424.507812 C 490.746094 408.199219 451.039062 394.976562 402.058594 394.976562 Z M 402.058594 394.976562 " clip-rule="nonzero"/></clipPath><clipPath id="7f4a7ceec2"><path d="M 333.347656 396.398438 L 470 396.398438 L 470 436.589844 L 333.347656 436.589844 Z M 333.347656 396.398438 " clip-rule="nonzero"/></clipPath><clipPath id="6b3b6e3579"><path d="M 401.648438 396.398438 C 363.925781 396.398438 333.347656 405.394531 333.347656 416.492188 C 333.347656 427.589844 363.925781 436.589844 401.648438 436.589844 C 439.371094 436.589844 469.949219 427.589844 469.949219 416.492188 C 469.949219 405.394531 439.371094 396.398438 401.648438 396.398438 Z M 401.648438 396.398438 " clip-rule="nonzero"/></clipPath><clipPath id="227854293a"><path d="M 282 170 L 324 170 L 324 266 L 282 266 Z M 282 170 " clip-rule="nonzero"/></clipPath><clipPath id="f918659ebd"><path d="M 255.996094 174.1875 L 318.910156 170.941406 L 323.625 262.320312 L 260.710938 265.566406 Z M 255.996094 174.1875 " clip-rule="nonzero"/></clipPath><clipPath id="0741fce6d6"><path d="M 255.996094 174.1875 L 482.941406 162.480469 L 494.804688 392.421875 L 267.859375 404.132812 Z M 255.996094 174.1875 " clip-rule="nonzero"/></clipPath><clipPath id="ff32d48e42"><path d="M 260 172 L 305 172 L 305 255 L 260 255 Z M 260 172 " clip-rule="nonzero"/></clipPath><clipPath id="2fbd6793a0"><path d="M 255.996094 174.1875 L 318.910156 170.941406 L 323.625 262.320312 L 260.710938 265.566406 Z M 255.996094 174.1875 " clip-rule="nonzero"/></clipPath><clipPath id="f99258aff3"><path d="M 255.996094 174.1875 L 482.941406 162.480469 L 494.804688 392.421875 L 267.859375 404.132812 Z M 255.996094 174.1875 " clip-rule="nonzero"/></clipPath><clipPath id="eaff5009d5"><path d="M 282 189 L 321 189 L 321 261 L 282 261 Z M 282 189 " clip-rule="nonzero"/></clipPath><clipPath id="5c05b006bb"><path d="M 255.996094 174.1875 L 318.910156 170.941406 L 323.625 262.320312 L 260.710938 265.566406 Z M 255.996094 174.1875 " clip-rule="nonzero"/></clipPath><clipPath id="dd99305553"><path d="M 255.996094 174.1875 L 482.941406 162.480469 L 494.804688 392.421875 L 267.859375 404.132812 Z M 255.996094 174.1875 " clip-rule="nonzero"/></clipPath><clipPath id="0338fb549f"><path d="M 474 214 L 497 214 L 497 324 L 474 324 Z M 474 214 " clip-rule="nonzero"/></clipPath><clipPath id="630b0dd92b"><path d="M 567.890625 298.96875 L 509.769531 323.285156 L 474.453125 238.875 L 532.574219 214.558594 Z M 567.890625 298.96875 " clip-rule="nonzero"/></clipPath><clipPath id="d2ad6ce787"><path d="M 567.890625 298.96875 L 358.246094 386.679688 L 269.378906 174.273438 L 479.019531 86.558594 Z M 567.890625 298.96875 " clip-rule="nonzero"/></clipPath><clipPath id="1cd172881f"><path d="M 520 225 L 546 225 L 546 316 L 520 316 Z M 520 225 " clip-rule="nonzero"/></clipPath><clipPath id="d0b20a8f07"><path d="M 567.890625 298.96875 L 509.769531 323.285156 L 474.453125 238.875 L 532.574219 214.558594 Z M 567.890625 298.96875 " clip-rule="nonzero"/></clipPath><clipPath id="0986765665"><path d="M 567.890625 298.96875 L 358.246094 386.679688 L 269.378906 174.273438 L 479.019531 86.558594 Z M 567.890625 298.96875 " clip-rule="nonzero"/></clipPath><clipPath id="0fded26c2b"><path d="M 500 228 L 522 228 L 522 305 L 500 305 Z M 500 228 " clip-rule="nonzero"/></clipPath><clipPath id="695720a6bd"><path d="M 567.890625 298.96875 L 509.769531 323.285156 L 474.453125 238.875 L 532.574219 214.558594 Z M 567.890625 298.96875 " clip-rule="nonzero"/></clipPath><clipPath id="656049b71a"><path d="M 567.890625 298.96875 L 358.246094 386.679688 L 269.378906 174.273438 L 479.019531 86.558594 Z M 567.890625 298.96875 " clip-rule="nonzero"/></clipPath><clipPath id="c8515debd0"><path d="M 303.402344 166.679688 L 502 166.679688 L 502 425.429688 L 303.402344 425.429688 Z M 303.402344 166.679688 " clip-rule="nonzero"/></clipPath><clipPath id="e056dc7082"><path d="M 303 166.679688 L 404.03125 166.679688 L 404.03125 424.679688 L 303 424.679688 Z M 303 166.679688 " clip-rule="nonzero"/></clipPath><clipPath id="d4563b6c2c"><path d="M 332.8125 190.238281 L 473.472656 190.238281 L 473.472656 330.894531 L 332.8125 330.894531 Z M 332.8125 190.238281 " clip-rule="nonzero"/></clipPath><clipPath id="7a98c5d63f"><path d="M 403.144531 190.238281 C 364.300781 190.238281 332.8125 221.722656 332.8125 260.566406 C 332.8125 299.410156 364.300781 330.894531 403.144531 330.894531 C 441.984375 330.894531 473.472656 299.410156 473.472656 260.566406 C 473.472656 221.722656 441.984375 190.238281 403.144531 190.238281 Z M 403.144531 190.238281 " clip-rule="nonzero"/></clipPath><clipPath id="e600b950ba"><path d="M 363.238281 216 L 405 216 L 405 282 L 363.238281 282 Z M 363.238281 216 " clip-rule="nonzero"/></clipPath><clipPath id="4541fe4be7"><path d="M 383 214.894531 L 446 214.894531 L 446 305 L 383 305 Z M 383 214.894531 " clip-rule="nonzero"/></clipPath><clipPath id="5b2f1fe762"><path d="M 411 207 L 421.234375 207 L 421.234375 210 L 411 210 Z M 411 207 " clip-rule="nonzero"/></clipPath><clipPath id="7aefc6ef96"><path d="M 384.484375 207 L 395 207 L 395 210 L 384.484375 210 Z M 384.484375 207 " clip-rule="nonzero"/></clipPath><clipPath id="7a882d3e13"><path d="M 401 216 L 404 216 L 404 226.453125 L 401 226.453125 Z M 401 216 " clip-rule="nonzero"/></clipPath><clipPath id="f2c16c9435"><path d="M 401 189.703125 L 404 189.703125 L 404 200 L 401 200 Z M 401 189.703125 " clip-rule="nonzero"/></clipPath><clipPath id="34eed0b1db"><path d="M 332.8125 254 L 353.8125 254 L 353.8125 274.246094 L 332.8125 274.246094 Z M 332.8125 254 " clip-rule="nonzero"/></clipPath><clipPath id="1607db5ddd"><path d="M 450.335938 255.0625 L 471.335938 255.0625 L 471.335938 275.3125 L 450.335938 275.3125 Z M 450.335938 255.0625 " clip-rule="nonzero"/></clipPath><clipPath id="2b1fae212c"><path d="M 393.527344 309.988281 L 414.527344 309.988281 L 414.527344 330.238281 L 393.527344 330.238281 Z M 393.527344 309.988281 " clip-rule="nonzero"/></clipPath><clipPath id="8253bb5011"><path d="M 320 513.863281 L 492.910156 513.863281 L 492.910156 665.09375 L 320 665.09375 Z M 320 513.863281 " clip-rule="nonzero"/></clipPath><clipPath id="f5343f8698"><path d="M 406.492188 665.09375 L 320.074219 513.863281 L 492.910156 513.863281 Z M 406.492188 665.09375 " clip-rule="nonzero"/></clipPath></defs><rect x="-81" width="972" fill="#ffffff" y="-80.999999" height="971.999992" fill-opacity="1"/><rect x="-81" width="972" fill="#ffffff" y="-80.999999" height="971.999992" fill-opacity="1"/><g clip-path="url(#8c53ec6f56)"><g clip-path="url(#c883cf5488)"><path fill="#99eeff" d="M 188.53125 92.167969 L 621.46875 92.167969 L 621.46875 564 L 188.53125 564 Z M 188.53125 92.167969 " fill-opacity="1" fill-rule="nonzero"/></g></g><g clip-path="url(#e4483899e7)"><g clip-path="url(#0c773760df)"><path fill="#cb2601" d="M 313.367188 394.976562 L 490.777344 394.976562 L 490.777344 454.039062 L 313.367188 454.039062 Z M 313.367188 394.976562 " fill-opacity="1" fill-rule="nonzero"/></g></g><g clip-path="url(#7f4a7ceec2)"><g clip-path="url(#6b3b6e3579)"><path fill="#99eeff" d="M 333.347656 396.398438 L 469.933594 396.398438 L 469.933594 436.589844 L 333.347656 436.589844 Z M 333.347656 396.398438 " fill-opacity="1" fill-rule="nonzero"/></g></g><g clip-path="url(#227854293a)"><g clip-path="url(#f918659ebd)"><g clip-path="url(#0741fce6d6)"><path fill="#cb2601" d="M 463.679688 323.636719 C 455.015625 318.257812 449.199219 309.300781 447.730469 299.214844 L 440.40625 248.953125 C 435.917969 218.640625 415.851562 193.929688 388.214844 187.59375 L 388.179688 186.90625 C 387.671875 177.046875 379.265625 169.46875 369.40625 169.976562 C 359.546875 170.484375 351.96875 178.890625 352.476562 188.75 L 352.511719 189.449219 C 325.703125 198.605469 308.300781 225.242188 306.960938 255.839844 L 304.847656 306.585938 C 304.421875 316.773438 299.558594 326.28125 291.496094 332.519531 C 285.921875 336.832031 282.480469 343.714844 282.871094 351.289062 C 283.503906 363.566406 293.972656 373.007812 306.253906 372.375 L 379.652344 368.585938 L 379.699219 368.585938 L 453.101562 364.796875 C 465.378906 364.164062 474.820312 353.695312 474.1875 341.417969 C 473.796875 333.84375 469.667969 327.351562 463.679688 323.636719 Z M 463.679688 323.636719 " fill-opacity="1" fill-rule="nonzero"/></g></g></g><g clip-path="url(#ff32d48e42)"><g clip-path="url(#2fbd6793a0)"><g clip-path="url(#f99258aff3)"><path fill="#cb2601" d="M 302.367188 183.289062 C 304.984375 181.519531 305.664062 177.960938 303.894531 175.347656 C 302.121094 172.734375 298.566406 172.050781 295.953125 173.824219 C 290.511719 177.511719 285.515625 181.953125 281.105469 187.019531 C 268.683594 201.300781 261.359375 220.148438 260.484375 240.097656 L 260.113281 249.039062 C 259.980469 252.195312 262.433594 254.859375 265.585938 254.988281 C 265.769531 254.996094 265.949219 254.996094 266.128906 254.988281 C 269.042969 254.835938 271.414062 252.488281 271.539062 249.515625 L 271.910156 240.632812 L 271.914062 240.554688 C 272.683594 223.195312 279.011719 206.855469 289.734375 194.53125 C 293.496094 190.203125 297.746094 186.421875 302.367188 183.289062 Z M 302.367188 183.289062 " fill-opacity="1" fill-rule="nonzero"/></g></g></g><g clip-path="url(#eaff5009d5)"><g clip-path="url(#5c05b006bb)"><g clip-path="url(#dd99305553)"><path fill="#cb2601" d="M 300.359375 200.199219 C 290.046875 212.050781 283.960938 227.765625 283.230469 244.449219 L 282.824219 254.226562 C 282.691406 257.382812 285.144531 260.046875 288.296875 260.179688 C 288.480469 260.1875 288.660156 260.183594 288.839844 260.175781 C 291.753906 260.027344 294.125 257.675781 294.25 254.703125 L 294.65625 244.9375 C 295.277344 230.835938 300.367188 217.613281 308.988281 207.703125 C 311.664062 204.625 314.65625 201.894531 317.878906 199.585938 C 320.445312 197.746094 321.035156 194.171875 319.195312 191.605469 C 317.355469 189.039062 313.78125 188.449219 311.214844 190.289062 C 307.269531 193.117188 303.617188 196.453125 300.359375 200.199219 Z M 300.359375 200.199219 " fill-opacity="1" fill-rule="nonzero"/></g></g></g><g clip-path="url(#0338fb549f)"><g clip-path="url(#630b0dd92b)"><g clip-path="url(#d2ad6ce787)"><path fill="#cb2601" d="M 321.917969 228.492188 C 331.890625 230.625 340.390625 237.089844 345.183594 246.089844 L 369.0625 290.917969 C 383.527344 317.929688 410.765625 334.410156 438.917969 331.03125 L 439.183594 331.667969 C 442.992188 340.773438 453.464844 345.066406 462.570312 341.257812 C 471.679688 337.445312 475.972656 326.976562 472.160156 317.867188 L 471.890625 317.222656 C 494.03125 299.542969 501.40625 268.59375 492.332031 239.34375 L 477.171875 190.867188 C 474.128906 181.136719 475.492188 170.542969 480.972656 161.949219 C 484.761719 156.003906 485.671875 148.363281 482.746094 141.371094 C 478 130.027344 464.957031 124.679688 453.617188 129.425781 L 385.8125 157.792969 L 385.789062 157.800781 L 385.769531 157.808594 L 317.964844 186.179688 C 306.621094 190.925781 301.273438 203.964844 306.019531 215.308594 C 308.945312 222.304688 315.027344 227.019531 321.917969 228.492188 Z M 321.917969 228.492188 " fill-opacity="1" fill-rule="nonzero"/></g></g></g><g clip-path="url(#1cd172881f)"><g clip-path="url(#d0b20a8f07)"><g clip-path="url(#0986765665)"><path fill="#cb2601" d="M 521.167969 306.074219 C 519.304688 308.625 519.863281 312.199219 522.417969 314.0625 C 524.96875 315.925781 528.546875 315.367188 530.40625 312.816406 C 534.28125 307.503906 537.480469 301.636719 539.917969 295.375 C 546.785156 277.738281 547.308594 257.523438 541.390625 238.453125 L 538.71875 229.914062 C 537.777344 226.898438 534.570312 225.21875 531.554688 226.160156 C 531.382812 226.214844 531.214844 226.277344 531.046875 226.347656 C 528.355469 227.472656 526.917969 230.484375 527.804688 233.328125 L 530.457031 241.808594 L 530.480469 241.882812 C 535.621094 258.480469 535.1875 276.003906 529.261719 291.222656 C 527.183594 296.566406 524.460938 301.5625 521.167969 306.074219 Z M 521.167969 306.074219 " fill-opacity="1" fill-rule="nonzero"/></g></g></g><g clip-path="url(#0fded26c2b)"><g clip-path="url(#695720a6bd)"><g clip-path="url(#656049b71a)"><path fill="#cb2601" d="M 517.34375 289.480469 C 523.046875 274.835938 523.460938 257.996094 518.511719 242.042969 L 515.589844 232.703125 C 514.648438 229.6875 511.441406 228.007812 508.425781 228.953125 C 508.253906 229.007812 508.085938 229.066406 507.921875 229.136719 C 505.226562 230.261719 503.789062 233.277344 504.675781 236.117188 L 507.59375 245.445312 C 511.773438 258.925781 511.453125 273.089844 506.6875 285.332031 C 505.207031 289.132812 503.316406 292.714844 501.0625 295.976562 C 499.269531 298.578125 499.921875 302.140625 502.519531 303.933594 C 505.121094 305.726562 508.679688 305.074219 510.476562 302.472656 C 513.234375 298.480469 515.542969 294.109375 517.34375 289.480469 Z M 517.34375 289.480469 " fill-opacity="1" fill-rule="nonzero"/></g></g></g><g clip-path="url(#c8515debd0)"><path fill="#cb2601" d="M 501.601562 265.71875 C 501.601562 320.363281 402.652344 425.5625 402.652344 425.5625 C 402.652344 425.5625 303.703125 320.363281 303.703125 265.71875 C 303.703125 211.070312 348.003906 166.773438 402.652344 166.773438 C 457.296875 166.773438 501.601562 211.070312 501.601562 265.71875 Z M 501.601562 265.71875 " fill-opacity="1" fill-rule="nonzero"/></g><g clip-path="url(#e056dc7082)"><path fill="#004aad" d="M 500.980469 265.71875 C 500.980469 320.363281 402.035156 425.5625 402.035156 425.5625 C 402.035156 425.5625 303.082031 320.363281 303.082031 265.71875 C 303.082031 211.070312 347.386719 166.773438 402.03125 166.773438 C 456.675781 166.773438 500.980469 211.070312 500.980469 265.71875 Z M 500.980469 265.71875 " fill-opacity="1" fill-rule="nonzero"/></g><g clip-path="url(#d4563b6c2c)"><g clip-path="url(#7a98c5d63f)"><path fill="#99eeff" d="M 332.8125 190.238281 L 473.472656 190.238281 L 473.472656 330.894531 L 332.8125 330.894531 Z M 332.8125 190.238281 " fill-opacity="1" fill-rule="nonzero"/></g></g><path fill="#cb2601" d="M 388.242188 234.824219 L 417.148438 234.824219 C 417.148438 235.335938 417.148438 235.847656 417.148438 236.359375 C 407.511719 236.359375 397.878906 236.359375 388.242188 236.359375 C 388.242188 235.847656 388.242188 235.335938 388.242188 234.824219 " fill-opacity="1" fill-rule="nonzero"/><path fill="#cb2601" d="M 401.308594 233.488281 L 403.691406 233.488281 C 403.691406 240.550781 403.691406 247.613281 403.691406 254.679688 C 402.898438 254.679688 402.101562 254.679688 401.308594 254.679688 C 401.308594 247.613281 401.308594 240.550781 401.308594 233.488281 " fill-opacity="1" fill-rule="nonzero"/><path fill="#cb2601" d="M 393.347656 254.730469 L 411.753906 254.730469 C 411.753906 255.769531 411.753906 256.808594 411.753906 257.847656 C 405.617188 257.847656 399.480469 257.847656 393.347656 257.847656 C 393.347656 256.808594 393.347656 255.769531 393.347656 254.730469 " fill-opacity="1" fill-rule="nonzero"/><path fill="#cb2601" d="M 384.3125 246.386719 L 384.273438 246.777344 C 384.214844 248.164062 384.65625 249.371094 385.59375 250.390625 L 385.878906 250.667969 C 386.074219 250.84375 386.285156 251.003906 386.507812 251.144531 C 386.730469 251.285156 386.964844 251.410156 387.207031 251.511719 C 387.695312 251.722656 388.207031 251.847656 388.734375 251.890625 C 390.132812 251.980469 391.359375 251.554688 392.414062 250.609375 C 392.808594 250.242188 393.136719 249.820312 393.390625 249.339844 C 393.671875 248.734375 393.816406 248.359375 393.824219 248.21875 C 393.886719 247.957031 393.929688 247.695312 393.949219 247.425781 C 393.988281 247.289062 393.96875 246.890625 393.894531 246.222656 L 384.3125 246.386719 " fill-opacity="1" fill-rule="nonzero"/><path fill="#cb2601" d="M 384.414062 247.140625 L 388.597656 237.1875 C 388.636719 237.089844 388.730469 237.027344 388.832031 237.023438 C 388.9375 237.023438 389.03125 237.082031 389.078125 237.175781 L 393.597656 246.617188 C 393.660156 246.75 393.605469 246.90625 393.472656 246.96875 C 393.34375 247.035156 393.183594 246.976562 393.121094 246.847656 L 388.601562 237.402344 L 389.082031 237.390625 L 384.902344 247.347656 C 384.847656 247.480469 384.691406 247.542969 384.554688 247.488281 C 384.421875 247.429688 384.359375 247.277344 384.414062 247.140625 Z M 384.414062 247.140625 " fill-opacity="1" fill-rule="nonzero"/><path fill="#cb2601" d="M 411.675781 246.074219 L 411.636719 246.46875 C 411.621094 246.734375 411.628906 246.996094 411.65625 247.257812 C 411.644531 247.394531 411.734375 247.78125 411.925781 248.410156 C 412.109375 248.910156 412.367188 249.367188 412.699219 249.785156 C 413.585938 250.851562 414.71875 251.449219 416.101562 251.578125 C 417.496094 251.667969 418.722656 251.242188 419.777344 250.300781 C 419.976562 250.117188 420.15625 249.917969 420.320312 249.707031 C 420.699219 249.152344 420.902344 248.808594 420.929688 248.667969 C 421.144531 248.171875 421.273438 247.65625 421.316406 247.117188 C 421.351562 246.980469 421.332031 246.582031 421.257812 245.914062 L 411.675781 246.074219 " fill-opacity="1" fill-rule="nonzero"/><path fill="#cb2601" d="M 411.824219 246.964844 L 416.003906 237.007812 C 416.046875 236.914062 416.136719 236.851562 416.242188 236.847656 C 416.347656 236.84375 416.441406 236.902344 416.488281 236.996094 L 421.007812 246.441406 C 421.070312 246.574219 421.015625 246.730469 420.882812 246.792969 C 420.75 246.855469 420.59375 246.800781 420.53125 246.667969 L 416.011719 237.226562 L 416.492188 237.214844 L 412.3125 247.167969 C 412.253906 247.304688 412.101562 247.367188 411.964844 247.308594 C 411.832031 247.253906 411.765625 247.097656 411.824219 246.964844 Z M 411.824219 246.964844 " fill-opacity="1" fill-rule="nonzero"/><path fill="#cb2601" d="M 399.71875 232.914062 L 399.726562 232.6875 C 399.789062 231.894531 400.128906 231.242188 400.742188 230.734375 C 400.980469 230.542969 401.242188 230.394531 401.53125 230.292969 C 401.671875 230.242188 401.816406 230.203125 401.96875 230.175781 C 402.117188 230.148438 402.265625 230.132812 402.417969 230.128906 L 402.644531 230.136719 C 402.945312 230.160156 403.226562 230.226562 403.492188 230.335938 L 403.691406 230.425781 C 403.816406 230.492188 403.941406 230.566406 404.058594 230.648438 C 404.175781 230.734375 404.285156 230.828125 404.386719 230.929688 C 404.914062 231.472656 405.183594 232.121094 405.1875 232.878906 L 399.71875 232.914062 " fill-opacity="1" fill-rule="nonzero"/><g clip-path="url(#e600b950ba)"><path fill="#cb2601" d="M 376.25 216.441406 C 369.941406 222.023438 364.136719 231.761719 363.527344 241.265625 C 363.246094 245.679688 364.085938 250.222656 365.515625 254.949219 C 366.105469 256.898438 367.789062 260.421875 370.699219 265.511719 C 372.214844 268.167969 376.695312 273.824219 383.445312 281.988281 C 388.1875 274.109375 393.066406 272.617188 404.089844 269.671875 C 390.972656 266.335938 377.882812 256.332031 373.902344 238.175781 C 372.363281 231.160156 374.339844 219.917969 376.210938 216.359375 Z M 376.25 216.441406 " fill-opacity="1" fill-rule="nonzero"/></g><g clip-path="url(#4541fe4be7)"><path fill="#cb2601" d="M 429.902344 214.941406 L 429.902344 214.945312 C 433.304688 220.636719 434.785156 226.816406 434.328125 233.488281 C 434.179688 235.707031 433.796875 237.976562 433.195312 240.296875 L 432.125 243.8125 C 431.300781 246.179688 430.167969 248.550781 428.964844 251.050781 C 426.277344 256.640625 422.109375 261.300781 416.25 264.953125 C 412.351562 267.382812 409.296875 269.0625 407.078125 269.980469 C 405.34375 270.699219 398.691406 272.683594 393.683594 274.738281 C 388.261719 276.964844 384.359375 282.605469 384.359375 282.605469 C 384.066406 283.191406 383.84375 283.332031 383.832031 284.335938 C 383.804688 286.316406 384.875 287.355469 386.199219 287.511719 C 384.632812 289.492188 383.738281 291.410156 384.269531 292.703125 C 385.324219 295.285156 388.671875 292.628906 388.671875 292.628906 C 385.832031 295.765625 386.835938 298.671875 386.835938 298.671875 C 388.363281 300.460938 390.199219 300.28125 392.335938 298.136719 C 390.222656 304.273438 394.640625 304.332031 394.640625 304.332031 C 396.046875 304.351562 397.585938 303.949219 399.257812 303.257812 L 405.710938 299.160156 L 406.515625 298.507812 C 404.953125 296.679688 404.453125 295.042969 404.882812 293.554688 C 405.496094 291.441406 406.652344 290.441406 408.496094 290.582031 C 408.753906 288.449219 409.277344 286.820312 410.191406 285.804688 C 410.867188 285.050781 411.964844 284.742188 413.363281 284.769531 C 413.527344 283.269531 413.988281 282.015625 414.859375 281.109375 C 415.789062 280.148438 417.128906 279.832031 418.765625 280.050781 C 419.265625 278.628906 419.992188 277.640625 420.988281 277.160156 C 422.507812 276.429688 424.402344 276.800781 426.632812 278.199219 C 434.472656 270.445312 439.929688 264.703125 441.785156 260.375 C 446.066406 250.414062 449.773438 228.625 430.488281 215.410156 Z M 429.902344 214.941406 " fill-opacity="1" fill-rule="nonzero"/></g><path fill="#cb2601" d="M 424.421875 278.242188 L 428.066406 281.535156 C 429.066406 282.441406 429.148438 283.988281 428.242188 284.988281 C 427.335938 285.992188 425.789062 286.070312 424.785156 285.164062 L 421.140625 281.875 C 420.140625 280.96875 420.0625 279.417969 420.96875 278.417969 C 421.875 277.414062 423.421875 277.335938 424.421875 278.242188 Z M 424.421875 278.242188 " fill-opacity="1" fill-rule="nonzero"/><path fill="#cb2601" d="M 419.78125 281.972656 L 425.289062 287.535156 C 426.445312 288.707031 426.4375 290.597656 425.265625 291.757812 C 424.09375 292.917969 422.203125 292.90625 421.042969 291.734375 L 415.539062 286.175781 C 414.378906 285.003906 414.386719 283.113281 415.558594 281.953125 C 416.730469 280.792969 418.621094 280.800781 419.78125 281.972656 Z M 419.78125 281.972656 " fill-opacity="1" fill-rule="nonzero"/><path fill="#cb2601" d="M 415.132812 287.074219 L 422.238281 293.917969 C 423.425781 295.058594 423.460938 296.949219 422.316406 298.136719 C 421.175781 299.324219 419.285156 299.359375 418.097656 298.21875 L 410.992188 291.375 C 409.804688 290.230469 409.769531 288.34375 410.910156 287.15625 C 412.054688 285.964844 413.945312 285.929688 415.132812 287.074219 Z M 415.132812 287.074219 " fill-opacity="1" fill-rule="nonzero"/><path fill="#cb2601" d="M 409.105469 291.945312 L 408.910156 291.949219 C 408.378906 291.984375 407.890625 292.164062 407.425781 292.457031 C 407.117188 292.65625 406.765625 292.976562 406.480469 293.503906 C 405.949219 294.480469 405.992188 295.484375 406.535156 296.453125 C 406.664062 296.683594 406.835938 296.886719 407.035156 297.078125 L 408.152344 298.289062 C 408.792969 298.152344 410.550781 298.160156 411.972656 299.554688 C 412.769531 300.339844 413.800781 302.359375 413.328125 303.128906 L 414.140625 303.921875 C 414.183594 303.976562 414.328125 304.109375 414.601562 304.289062 C 415.152344 304.644531 415.757812 304.789062 416.40625 304.75 C 416.9375 304.71875 417.421875 304.535156 417.886719 304.242188 C 418.195312 304.046875 418.546875 303.726562 418.832031 303.195312 C 419.363281 302.21875 419.320312 301.21875 418.777344 300.25 C 418.648438 300.019531 418.480469 299.8125 418.28125 299.621094 L 411.027344 292.644531 C 410.566406 292.222656 409.925781 291.988281 409.105469 291.945312 Z M 409.105469 291.945312 " fill-opacity="1" fill-rule="nonzero"/><path fill="#cb2601" d="M 402.207031 302.796875 L 407.371094 299.636719 C 408.925781 298.6875 410.957031 299.175781 411.90625 300.726562 C 412.855469 302.28125 412.367188 304.3125 410.8125 305.261719 L 405.648438 308.421875 C 404.09375 309.371094 402.066406 308.882812 401.117188 307.328125 C 400.164062 305.777344 400.65625 303.746094 402.207031 302.796875 Z M 402.207031 302.796875 " fill-opacity="1" fill-rule="nonzero"/><g clip-path="url(#5b2f1fe762)"><path fill="#fdbb11" d="M 420.328125 207.101562 L 411.535156 207.582031 C 411.535156 207.746094 411.535156 207.902344 411.535156 208.082031 C 411.535156 208.261719 411.535156 208.402344 411.535156 208.558594 L 420.3125 209.046875 L 421.246094 208.089844 Z M 420.328125 207.101562 " fill-opacity="1" fill-rule="nonzero"/></g><path fill="#fdbb11" d="M 411.324219 210.046875 L 417.886719 211.570312 L 419.25 210.152344 L 411.484375 209.15625 C 411.449219 209.453125 411.394531 209.75 411.324219 210.046875 Z M 411.324219 210.046875 " fill-opacity="1" fill-rule="nonzero"/><path fill="#fdbb11" d="M 411.480469 206.992188 L 419.242188 205.988281 L 419.273438 205.988281 L 418.207031 204.863281 L 411.363281 206.304688 C 411.410156 206.523438 411.453125 206.757812 411.480469 206.992188 Z M 411.480469 206.992188 " fill-opacity="1" fill-rule="nonzero"/><path fill="#fdbb11" d="M 394.539062 206.15625 L 387.832031 204.601562 L 386.480469 206.019531 L 394.382812 207.039062 C 394.417969 206.742188 394.46875 206.445312 394.539062 206.15625 Z M 394.539062 206.15625 " fill-opacity="1" fill-rule="nonzero"/><g clip-path="url(#7aefc6ef96)"><path fill="#fdbb11" d="M 394.320312 208.085938 C 394.320312 207.929688 394.320312 207.765625 394.320312 207.617188 L 385.425781 207.125 L 384.484375 208.09375 L 385.414062 209.070312 L 394.328125 208.578125 C 394.324219 208.417969 394.320312 208.25 394.320312 208.085938 Z M 394.320312 208.085938 " fill-opacity="1" fill-rule="nonzero"/></g><path fill="#fdbb11" d="M 394.382812 209.179688 L 386.496094 210.179688 L 386.464844 210.179688 L 387.53125 211.304688 L 394.492188 209.839844 C 394.453125 209.625 394.417969 209.394531 394.382812 209.179688 Z M 394.382812 209.179688 " fill-opacity="1" fill-rule="nonzero"/><path fill="#fdbb11" d="M 403.960938 216.640625 L 404.96875 224.453125 L 404.96875 224.480469 L 406.09375 223.414062 L 404.652344 216.523438 C 404.425781 216.578125 404.191406 216.613281 403.960938 216.640625 Z M 403.960938 216.640625 " fill-opacity="1" fill-rule="nonzero"/><g clip-path="url(#7a882d3e13)"><path fill="#fdbb11" d="M 402.933594 216.703125 C 402.757812 216.703125 402.578125 216.703125 402.402344 216.703125 L 401.910156 225.535156 L 402.867188 226.464844 L 403.824219 225.539062 L 403.367188 216.691406 C 403.226562 216.699219 403.082031 216.703125 402.933594 216.703125 Z M 402.933594 216.703125 " fill-opacity="1" fill-rule="nonzero"/></g><path fill="#fdbb11" d="M 399.386719 223.097656 L 400.804688 224.457031 L 401.816406 216.621094 C 401.519531 216.582031 401.222656 216.527344 400.933594 216.457031 Z M 399.386719 223.097656 " fill-opacity="1" fill-rule="nonzero"/><g clip-path="url(#f2c16c9435)"><path fill="#fdbb11" d="M 402.933594 199.46875 C 403.074219 199.46875 403.214844 199.46875 403.355469 199.46875 L 403.847656 190.640625 L 402.878906 189.703125 L 401.902344 190.628906 L 402.394531 199.484375 C 402.574219 199.476562 402.753906 199.46875 402.933594 199.46875 Z M 402.933594 199.46875 " fill-opacity="1" fill-rule="nonzero"/></g><path fill="#fdbb11" d="M 401.800781 199.542969 L 400.796875 191.710938 L 400.796875 191.683594 L 399.664062 192.75 L 401.113281 199.664062 C 401.339844 199.601562 401.566406 199.574219 401.800781 199.542969 Z M 401.800781 199.542969 " fill-opacity="1" fill-rule="nonzero"/><path fill="#fdbb11" d="M 406.371094 193.066406 L 404.957031 191.695312 L 403.960938 199.53125 C 404.261719 199.566406 404.554688 199.613281 404.847656 199.679688 Z M 406.371094 193.066406 " fill-opacity="1" fill-rule="nonzero"/><path fill="#fdbb11" d="M 408.648438 214.535156 L 414.523438 221.101562 L 415.867188 221.078125 L 415.902344 219.730469 L 409.339844 213.847656 C 409.121094 214.089844 408.890625 214.320312 408.648438 214.535156 Z M 408.648438 214.535156 " fill-opacity="1" fill-rule="nonzero"/><path fill="#fdbb11" d="M 407.449219 215.425781 L 411.027344 221.171875 L 412.992188 221.132812 L 408.191406 214.925781 C 407.953125 215.105469 407.707031 215.273438 407.449219 215.425781 Z M 407.449219 215.425781 " fill-opacity="1" fill-rule="nonzero"/><path fill="#fdbb11" d="M 409.710938 213.394531 L 415.917969 218.183594 L 415.9375 218.203125 L 415.980469 216.65625 L 410.125 212.824219 C 410.003906 213.011719 409.867188 213.210938 409.710938 213.394531 Z M 409.710938 213.394531 " fill-opacity="1" fill-rule="nonzero"/><path fill="#fdbb11" d="M 398.328125 200.804688 L 394.703125 195 L 392.738281 195.042969 L 397.589844 201.328125 C 397.828125 201.140625 398.074219 200.964844 398.328125 200.804688 Z M 398.328125 200.804688 " fill-opacity="1" fill-rule="nonzero"/><path fill="#fdbb11" d="M 396.097656 202.84375 L 389.8125 198.003906 L 389.789062 197.984375 L 389.75 199.535156 L 395.695312 203.410156 C 395.824219 203.214844 395.957031 203.027344 396.097656 202.84375 Z M 396.097656 202.84375 " fill-opacity="1" fill-rule="nonzero"/><path fill="#fdbb11" d="M 397.148438 201.703125 L 391.214844 195.070312 L 389.871094 195.097656 L 389.832031 196.445312 L 396.472656 202.390625 C 396.6875 202.148438 396.910156 201.917969 397.148438 201.703125 Z M 397.148438 201.703125 " fill-opacity="1" fill-rule="nonzero"/><path fill="#fdbb11" d="M 409.320312 202.300781 L 415.886719 196.429688 L 415.859375 195.085938 L 414.511719 195.046875 L 408.628906 201.621094 C 408.871094 201.835938 409.101562 202.0625 409.320312 202.300781 Z M 409.320312 202.300781 " fill-opacity="1" fill-rule="nonzero"/><path fill="#fdbb11" d="M 410.226562 203.496094 L 415.953125 199.921875 L 415.910156 197.953125 L 409.710938 202.757812 C 409.894531 202.992188 410.066406 203.242188 410.226562 203.496094 Z M 410.226562 203.496094 " fill-opacity="1" fill-rule="nonzero"/><path fill="#fdbb11" d="M 412.964844 195.027344 L 412.984375 195.007812 L 411.4375 194.964844 L 407.605469 200.835938 C 407.804688 200.964844 407.996094 201.101562 408.183594 201.242188 Z M 412.964844 195.027344 " fill-opacity="1" fill-rule="nonzero"/><path fill="#fdbb11" d="M 396.492188 213.804688 L 389.855469 219.742188 L 389.882812 221.085938 L 391.226562 221.121094 L 397.164062 214.480469 C 396.925781 214.269531 396.703125 214.042969 396.492188 213.804688 Z M 396.492188 213.804688 " fill-opacity="1" fill-rule="nonzero"/><path fill="#fdbb11" d="M 395.605469 212.617188 L 389.785156 216.242188 L 389.824219 218.210938 L 396.113281 213.351562 C 395.933594 213.117188 395.765625 212.871094 395.605469 212.617188 Z M 395.605469 212.617188 " fill-opacity="1" fill-rule="nonzero"/><path fill="#fdbb11" d="M 392.789062 221.144531 L 392.769531 221.167969 L 394.316406 221.207031 L 398.183594 215.273438 C 397.988281 215.144531 397.800781 215.011719 397.617188 214.867188 Z M 392.789062 221.144531 " fill-opacity="1" fill-rule="nonzero"/><path fill="#fdbb11" d="M 410.609375 207.371094 C 410.609375 207.332031 410.609375 207.289062 410.609375 207.25 C 410.609375 207.207031 410.609375 207.226562 410.609375 207.214844 C 410.59375 207.074219 410.574219 206.933594 410.554688 206.796875 C 410.316406 205.414062 409.742188 204.183594 408.832031 203.113281 L 408.804688 203.078125 L 408.753906 203.015625 C 408.742188 203 408.730469 202.984375 408.71875 202.972656 C 408.601562 202.84375 408.484375 202.71875 408.359375 202.597656 C 407.941406 202.183594 407.480469 201.824219 406.980469 201.515625 L 406.953125 201.515625 L 406.835938 201.445312 L 406.789062 201.417969 L 406.691406 201.359375 L 406.636719 201.332031 L 406.535156 201.277344 L 406.484375 201.253906 L 406.394531 201.199219 L 406.34375 201.171875 L 406.234375 201.117188 L 406.195312 201.117188 L 406.074219 201.058594 C 405.824219 200.949219 405.570312 200.851562 405.308594 200.769531 L 405.164062 200.726562 L 405.113281 200.726562 L 404.96875 200.683594 L 404.945312 200.683594 L 404.800781 200.644531 C 404.683594 200.617188 404.566406 200.589844 404.449219 200.566406 L 404.25 200.53125 C 403.996094 200.488281 403.742188 200.457031 403.484375 200.4375 L 402.636719 200.4375 C 402.445312 200.4375 402.257812 200.460938 402.074219 200.484375 L 401.917969 200.484375 C 401.257812 200.570312 400.621094 200.742188 400.003906 200.996094 L 399.859375 201.058594 L 399.722656 201.117188 L 399.699219 201.117188 L 399.566406 201.183594 L 399.429688 201.253906 C 398.925781 201.515625 398.460938 201.828125 398.027344 202.191406 L 397.96875 202.238281 L 397.914062 202.289062 L 397.816406 202.371094 L 397.644531 202.53125 L 397.644531 202.550781 L 397.511719 202.683594 L 397.492188 202.699219 L 397.355469 202.84375 C 397.011719 203.210938 396.710938 203.609375 396.445312 204.035156 L 396.445312 204.054688 C 396.417969 204.09375 396.394531 204.136719 396.375 204.171875 L 396.355469 204.207031 C 396.332031 204.242188 396.308594 204.277344 396.289062 204.316406 C 396.28125 204.328125 396.273438 204.34375 396.269531 204.355469 L 396.207031 204.46875 L 396.1875 204.503906 C 396.164062 204.542969 396.148438 204.582031 396.128906 204.621094 C 396.125 204.632812 396.125 204.644531 396.128906 204.65625 L 395.980469 204.773438 C 395.910156 204.921875 395.847656 205.066406 395.785156 205.21875 L 395.726562 205.347656 C 395.71875 205.363281 395.714844 205.378906 395.710938 205.394531 C 395.695312 205.429688 395.679688 205.46875 395.667969 205.503906 L 395.648438 205.558594 C 395.648438 205.59375 395.625 205.632812 395.613281 205.667969 L 395.59375 205.726562 C 395.582031 205.765625 395.570312 205.800781 395.558594 205.835938 L 395.539062 205.898438 C 395.539062 205.933594 395.519531 205.972656 395.507812 206.007812 C 395.503906 206.027344 395.5 206.046875 395.492188 206.066406 L 395.464844 206.179688 C 395.464844 206.199219 395.464844 206.214844 395.464844 206.230469 C 395.4375 206.335938 395.414062 206.441406 395.394531 206.550781 C 395.335938 206.816406 395.296875 207.085938 395.273438 207.359375 C 395.273438 207.382812 395.273438 207.402344 395.273438 207.425781 C 395.273438 207.453125 395.273438 207.484375 395.273438 207.515625 L 395.273438 207.863281 C 395.273438 207.933594 395.273438 208.003906 395.273438 208.070312 C 395.273438 208.125 395.273438 208.179688 395.273438 208.234375 L 395.273438 208.289062 C 395.273438 208.332031 395.273438 208.375 395.273438 208.417969 C 395.273438 208.527344 395.273438 208.628906 395.292969 208.734375 C 395.292969 208.753906 395.292969 208.777344 395.292969 208.796875 L 395.292969 208.890625 C 395.292969 208.933594 395.292969 208.976562 395.292969 209.019531 C 395.292969 209.066406 395.292969 209.097656 395.292969 209.136719 L 395.292969 209.199219 C 395.292969 209.234375 395.292969 209.269531 395.308594 209.304688 C 395.324219 209.339844 395.308594 209.347656 395.308594 209.367188 L 395.328125 209.476562 L 395.328125 209.535156 C 395.367188 209.730469 395.414062 209.929688 395.464844 210.121094 L 395.464844 210.144531 L 395.503906 210.273438 L 395.503906 210.3125 C 395.503906 210.355469 395.535156 210.398438 395.546875 210.4375 L 395.546875 210.480469 C 395.546875 210.519531 395.574219 210.5625 395.589844 210.605469 L 395.589844 210.640625 L 395.636719 210.769531 L 395.636719 210.796875 L 395.691406 210.9375 C 395.8125 211.246094 395.957031 211.542969 396.121094 211.832031 C 396.148438 211.882812 396.175781 211.929688 396.203125 211.976562 C 396.300781 212.140625 396.402344 212.296875 396.523438 212.453125 C 396.925781 213.023438 397.398438 213.527344 397.9375 213.96875 L 397.996094 214.015625 L 398.054688 214.066406 L 398.15625 214.148438 L 398.246094 214.21875 L 398.300781 214.261719 L 398.402344 214.332031 L 398.429688 214.355469 L 398.542969 214.4375 C 398.945312 214.71875 399.371094 214.960938 399.820312 215.160156 L 399.976562 215.222656 C 400.464844 215.425781 400.972656 215.574219 401.492188 215.671875 L 401.683594 215.703125 C 401.777344 215.703125 401.875 215.730469 401.96875 215.742188 L 402.039062 215.742188 C 402.21875 215.761719 402.402344 215.773438 402.59375 215.78125 L 403.5625 215.78125 C 403.691406 215.78125 403.820312 215.753906 403.945312 215.734375 L 404.09375 215.710938 C 404.242188 215.691406 404.382812 215.664062 404.523438 215.632812 L 404.570312 215.632812 L 404.691406 215.605469 L 404.746094 215.605469 L 404.863281 215.570312 L 404.914062 215.570312 L 405.03125 215.539062 L 405.082031 215.539062 L 405.203125 215.503906 L 405.25 215.503906 L 405.375 215.464844 L 405.402344 215.464844 C 405.710938 215.355469 406.011719 215.230469 406.304688 215.082031 L 406.4375 215.011719 L 406.574219 214.941406 L 406.710938 214.863281 C 407.472656 214.417969 408.136719 213.855469 408.707031 213.183594 L 408.730469 213.160156 L 408.796875 213.078125 L 408.832031 213.035156 C 409.335938 212.402344 409.734375 211.707031 410.027344 210.953125 C 410.046875 210.902344 410.0625 210.851562 410.082031 210.796875 C 410.101562 210.746094 410.117188 210.695312 410.136719 210.640625 C 410.324219 210.082031 410.441406 209.507812 410.492188 208.917969 C 410.515625 208.691406 410.523438 208.460938 410.523438 208.230469 L 410.523438 208.167969 C 410.527344 208.144531 410.527344 208.117188 410.523438 208.09375 C 410.636719 207.757812 410.625 207.5625 410.609375 207.371094 Z M 410.609375 207.371094 " fill-opacity="1" fill-rule="nonzero"/><g clip-path="url(#34eed0b1db)"><path fill="#fdb91a" d="M 345.90625 261.578125 L 343.3125 254.003906 L 340.71875 261.578125 L 332.824219 261.738281 L 339.117188 266.582031 L 336.828125 274.257812 L 343.3125 269.679688 L 349.796875 274.257812 L 347.507812 266.582031 L 353.804688 261.738281 Z M 345.90625 261.578125 " fill-opacity="1" fill-rule="nonzero"/></g><g clip-path="url(#1607db5ddd)"><path fill="#fdb91a" d="M 463.429688 262.644531 L 460.835938 255.070312 L 458.242188 262.644531 L 450.34375 262.808594 L 456.640625 267.648438 L 454.351562 275.324219 L 460.835938 270.746094 L 467.320312 275.324219 L 465.03125 267.648438 L 471.328125 262.808594 Z M 463.429688 262.644531 " fill-opacity="1" fill-rule="nonzero"/></g><g clip-path="url(#2b1fae212c)"><path fill="#fdb91a" d="M 406.621094 317.566406 L 404.027344 309.992188 L 401.433594 317.566406 L 393.539062 317.730469 L 399.832031 322.574219 L 397.542969 330.246094 L 404.027344 325.667969 L 410.511719 330.246094 L 408.222656 322.574219 L 414.519531 317.730469 Z M 406.621094 317.566406 " fill-opacity="1" fill-rule="nonzero"/></g><g clip-path="url(#8253bb5011)"><g clip-path="url(#f5343f8698)"><path fill="#99eeff" d="M 492.910156 665.09375 L 319.820312 665.09375 L 319.820312 513.863281 L 492.910156 513.863281 Z M 492.910156 665.09375 " fill-opacity="1" fill-rule="nonzero"/></g></g><g fill="#004aad" fill-opacity="1"><g transform="translate(301.018389, 495.419503)"><g><path d="M 7.203125 -8.328125 L 7.203125 0 L 2.0625 0 L 2.0625 -23.296875 L 10.796875 -23.296875 C 12.046875 -23.296875 13.210938 -22.984375 14.296875 -22.359375 C 15.390625 -21.734375 16.265625 -20.859375 16.921875 -19.734375 C 17.585938 -18.617188 17.921875 -17.316406 17.921875 -15.828125 C 17.921875 -14.253906 17.585938 -12.90625 16.921875 -11.78125 C 16.265625 -10.664062 15.390625 -9.8125 14.296875 -9.21875 C 13.210938 -8.625 12.046875 -8.328125 10.796875 -8.328125 Z M 9.9375 -19.25 L 7.203125 -19.25 L 7.203125 -12.375 L 9.9375 -12.375 C 10.6875 -12.375 11.382812 -12.671875 12.03125 -13.265625 C 12.6875 -13.859375 13.015625 -14.710938 13.015625 -15.828125 C 13.015625 -16.898438 12.6875 -17.738281 12.03125 -18.34375 C 11.382812 -18.945312 10.6875 -19.25 9.9375 -19.25 Z M 9.9375 -19.25 "/></g></g></g><g fill="#004aad" fill-opacity="1"><g transform="translate(327.506327, 495.419503)"><g><path d="M 14.875 -23.296875 L 20.359375 -23.296875 L 20.359375 0 L 14.875 0 L 14.875 -9.359375 L 7.203125 -9.359375 L 7.203125 0 L 2.0625 0 L 2.0625 -23.296875 L 7.203125 -23.296875 L 7.203125 -14.015625 L 14.875 -14.015625 Z M 14.875 -23.296875 "/></g></g></g><g fill="#004aad" fill-opacity="1"><g transform="translate(357.969035, 495.419503)"><g><path d="M 7.203125 0 L 2.0625 0 L 2.0625 -23.296875 L 7.203125 -23.296875 Z M 7.203125 0 "/></g></g></g><g fill="#004aad" fill-opacity="1"><g transform="translate(375.273877, 495.419503)"><g><path d="M 2.0625 0 L 2.0625 -23.296875 L 7.203125 -23.296875 L 7.203125 -4.65625 L 15.5625 -4.65625 L 15.5625 0 Z M 2.0625 0 "/></g></g></g><g fill="#cb2601" fill-opacity="1"><g transform="translate(400.088635, 495.419503)"><g><path d="M 11.109375 -3.625 C 11.648438 -3.625 12.238281 -3.707031 12.875 -3.875 C 13.519531 -4.050781 14.078125 -4.335938 14.546875 -4.734375 C 15.015625 -5.140625 15.25 -5.6875 15.25 -6.375 C 15.25 -7.007812 15.003906 -7.519531 14.515625 -7.90625 C 14.023438 -8.300781 13.378906 -8.625 12.578125 -8.875 C 11.773438 -9.125 10.898438 -9.359375 9.953125 -9.578125 C 9.003906 -9.796875 8.050781 -10.054688 7.09375 -10.359375 C 6.132812 -10.671875 5.253906 -11.078125 4.453125 -11.578125 C 3.648438 -12.078125 3.003906 -12.726562 2.515625 -13.53125 C 2.023438 -14.332031 1.78125 -15.347656 1.78125 -16.578125 C 1.78125 -17.796875 2.03125 -18.84375 2.53125 -19.71875 C 3.039062 -20.59375 3.710938 -21.320312 4.546875 -21.90625 C 5.378906 -22.488281 6.3125 -22.921875 7.34375 -23.203125 C 8.382812 -23.492188 9.429688 -23.640625 10.484375 -23.640625 C 12.085938 -23.640625 13.582031 -23.390625 14.96875 -22.890625 C 16.363281 -22.390625 17.5 -21.59375 18.375 -20.5 C 19.257812 -19.414062 19.722656 -17.984375 19.765625 -16.203125 L 14.796875 -16.203125 C 14.660156 -17.421875 14.238281 -18.257812 13.53125 -18.71875 C 12.820312 -19.1875 11.828125 -19.421875 10.546875 -19.421875 C 10.066406 -19.421875 9.554688 -19.34375 9.015625 -19.1875 C 8.484375 -19.03125 8.03125 -18.773438 7.65625 -18.421875 C 7.28125 -18.066406 7.09375 -17.59375 7.09375 -17 C 7.09375 -16.40625 7.335938 -15.9375 7.828125 -15.59375 C 8.316406 -15.25 8.960938 -14.960938 9.765625 -14.734375 C 10.566406 -14.503906 11.445312 -14.285156 12.40625 -14.078125 C 13.363281 -13.878906 14.316406 -13.628906 15.265625 -13.328125 C 16.210938 -13.035156 17.082031 -12.628906 17.875 -12.109375 C 18.675781 -11.597656 19.320312 -10.929688 19.8125 -10.109375 C 20.3125 -9.285156 20.5625 -8.234375 20.5625 -6.953125 C 20.5625 -5.585938 20.285156 -4.421875 19.734375 -3.453125 C 19.191406 -2.492188 18.457031 -1.722656 17.53125 -1.140625 C 16.601562 -0.566406 15.5625 -0.144531 14.40625 0.125 C 13.25 0.40625 12.078125 0.546875 10.890625 0.546875 C 9.179688 0.546875 7.578125 0.253906 6.078125 -0.328125 C 4.585938 -0.910156 3.378906 -1.804688 2.453125 -3.015625 C 1.523438 -4.222656 1.050781 -5.773438 1.03125 -7.671875 L 6.234375 -7.671875 C 6.304688 -6.273438 6.820312 -5.25 7.78125 -4.59375 C 8.738281 -3.945312 9.847656 -3.625 11.109375 -3.625 Z M 11.109375 -3.625 "/></g></g></g><g fill="#cb2601" fill-opacity="1"><g transform="translate(429.728975, 495.419503)"><g><path d="M 14.734375 -8.90625 L 11.78125 -17.203125 L 8.84375 -8.90625 Z M 23.4375 0 L 17.921875 0 L 16.234375 -4.6875 L 7.359375 -4.6875 L 5.6875 0 L 0.171875 0 L 9.625 -23.296875 L 13.984375 -23.296875 Z M 23.4375 0 "/></g></g></g><g fill="#cb2601" fill-opacity="1"><g transform="translate(461.390968, 495.419503)"><g><path d="M 15.21875 -9.359375 L 7.203125 -9.359375 L 7.203125 0 L 2.0625 0 L 2.0625 -23.296875 L 15.5625 -23.296875 L 15.5625 -18.640625 L 7.203125 -18.640625 L 7.203125 -14.015625 L 15.21875 -14.015625 Z M 15.21875 -9.359375 "/></g></g></g><g fill="#cb2601" fill-opacity="1"><g transform="translate(486.713887, 495.419503)"><g><path d="M 15.5625 -4.65625 L 15.5625 0 L 2.0625 0 L 2.0625 -23.296875 L 15.5625 -23.296875 L 15.5625 -18.640625 L 7.203125 -18.640625 L 7.203125 -14.015625 L 15.21875 -14.015625 L 15.21875 -9.359375 L 7.203125 -9.359375 L 7.203125 -4.65625 Z M 15.5625 -4.65625 "/></g></g></g></svg>