<svg width="32" height="32" viewBox="0 0 32 24" fill="none" xmlns="http://www.w3.org/2000/svg">
<path d="M22.8501 8.77002C25.6789 8.78168 27.211 8.87593 28.2098 9.62219C29.353 10.4763 29.353 11.8503 29.353 14.5982V15.5699C29.353 18.3188 29.353 19.6928 28.2098 20.5469C27.0679 21.4001 25.2276 21.4001 21.5496 21.4001H11.145C7.46697 21.4001 5.62666 21.4001 4.48476 20.5469C3.34155 19.6918 3.34155 18.3188 3.34155 15.5699V14.5982C3.34155 11.8503 3.34155 10.4763 4.48476 9.62219C5.4836 8.87593 7.01567 8.78168 9.84442 8.77002" stroke="black" stroke-opacity="0.6" stroke-width="1.5" stroke-linecap="round"/>
<path d="M16.3473 14.5983V1.96631M16.3473 1.96631L20.249 5.36723M16.3473 1.96631L12.4456 5.36723" stroke="black" stroke-opacity="0.6" stroke-width="1.5" stroke-linecap="round" stroke-linejoin="round"/>
</svg>
